<svg xmlns="http://www.w3.org/2000/svg">
  <symbol id="light-mode" viewBox="0 0 44 44">
    <path xmlns="http://www.w3.org/2000/svg" d="M36.6668 15.9318V7.33347H28.0685L22.0001 1.26514L15.9318 7.33347H7.33347V15.9318L1.26514 22.0001L7.33347 28.0685V36.6668H15.9318L22.0001 42.7351L28.0685 36.6668H36.6668V28.0685L42.7351 22.0001L36.6668 15.9318ZM22.0001 33.0001C15.9318 33.0001 11.0001 28.0685 11.0001 22.0001C11.0001 15.9318 15.9318 11.0001 22.0001 11.0001C28.0685 11.0001 33.0001 15.9318 33.0001 22.0001C33.0001 28.0685 28.0685 33.0001 22.0001 33.0001ZM22.0001 14.6668C17.9485 14.6668 14.6668 17.9485 14.6668 22.0001C14.6668 26.0518 17.9485 29.3335 22.0001 29.3335C26.0518 29.3335 29.3335 26.0518 29.3335 22.0001C29.3335 17.9485 26.0518 14.6668 22.0001 14.6668Z" fill="#000"/>
  </symbol>
  <symbol id="dark-mode" viewBox="0 0 43 44">
    <path xmlns="http://www.w3.org/2000/svg" d="M16.125 3.6665C14.2438 3.6665 12.4521 3.95984 10.75 4.50984C18.0242 6.83817 23.2917 13.7865 23.2917 21.9998C23.2917 30.2132 18.0242 37.1615 10.75 39.4898C12.4521 40.0398 14.2438 40.3332 16.125 40.3332C26.015 40.3332 34.0417 32.1198 34.0417 21.9998C34.0417 11.8798 26.015 3.6665 16.125 3.6665Z" fill="#FFF"/>
  </symbol>
</svg>